<?xml version="1.0" encoding="UTF-8" standalone="no"?>
<svg width="206px" height="330px" viewBox="0 0 206 330" version="1.1" xmlns="http://www.w3.org/2000/svg" xmlns:xlink="http://www.w3.org/1999/xlink">
    <!-- Generator: Sketch 40.3 (33839) - http://www.bohemiancoding.com/sketch -->
    <title>Group</title>
    <desc>Created with Sketch.</desc>
    <defs></defs>
    <g id="Page-1" stroke="none" stroke-width="1" fill="none" fill-rule="evenodd">
        <g id="Group">
            <ellipse id="Oval" fill="#EFE8E8" cx="103" cy="207" rx="103" ry="35"></ellipse>
            <path d="M1.60892194,219.182966 C18.5536091,200.658129 3.56561663,213.41472 28.1499055,202.745402 C60.181445,188.844058 43.3744175,197.274413 87.2963486,193.719135 C92.8873333,193.266571 98.0431678,190.325025 103.597563,189.542327 C106.966011,189.067663 151.36454,192.86445 153.717739,193.314635 C157.978818,194.12981 161.220144,197.779633 165.304327,199.242762 C173.306806,202.109592 182.362158,202.178384 189.824324,206.249558 C198.87441,211.187061 202.902948,216.539848 199.509609,222.199297 C194.183585,231.082098 178.428398,238.647835 170.770385,240.407875 C130.180438,249.736655 87.4203167,251.236156 46.5645213,243.996869 C41.6292354,243.12238 7.5651697,228.799902 3.67535847,226.732125 C2.36730752,226.036781 2.95725663,223.857698 2.59820571,222.420484 L1.60892194,219.182966 Z" id="Path-2" stroke="#000000" fill="#030202"></path>
            <path d="M0.5,210.5 L34.7304688,307.53125 C35,319.702549 65.444637,330 103,330 L103,330 C140.555363,330 171,319.702549 171,307 L205.574219,210.40625 C206,226.329966 159.885329,242 103,242 L103,242 C46.1146708,242 0,226.329966 0,207" id="Oval" fill="#D8D8D8"></path>
            <path d="M0,222 C0,241.329966 46.1146708,257 103,257 L103,257 C159.885329,257 206,241.329966 206,222 L206,207 C206,226.329966 159.885329,242 103,242 L103,242 C46.1146708,242 0,226.329966 0,207 L0.0129856654,223.057706" id="Oval" fill="#D8D8D8"></path>
            <ellipse id="Oval" cx="103" cy="207" rx="103" ry="35"></ellipse>
            <rect id="Rectangle" fill="#F8F8F8" x="68" y="57" width="7" height="169"></rect>
            <rect id="Rectangle" fill="#F8F8F8" x="99" y="103" width="7" height="123"></rect>
            <rect id="Rectangle" fill="#F8F8F8" x="37" y="94" width="7" height="123"></rect>
            <rect id="Rectangle" fill="#F8F8F8" transform="translate(157.500000, 115.500000) scale(-1, 1) translate(-157.500000, -115.500000) " x="154" y="12" width="7" height="207"></rect>
            <rect id="Rectangle" fill="#F8F8F8" x="130" y="0" width="7" height="207"></rect>
            <path d="M36.7847522,109.055032 C36.7847522,109.055032 23.5313437,119.462084 9,108.774633 C23.1330942,98.1563457 36.3865027,108.563398 36.3865027,108.563398" id="Path-3" fill="#D8D8D8"></path>
            <path d="M68.7847522,130.055032 C68.7847522,130.055032 55.5313437,140.462084 41,129.774633 C55.1330942,119.156346 68.3865027,129.563398 68.3865027,129.563398" id="Path-3" fill="#D8D8D8"></path>
            <path d="M68.7847522,68.0550319 C68.7847522,68.0550319 55.5313437,78.4620844 41,67.7746326 C55.1330942,57.1563457 68.3865027,67.5633982 68.3865027,67.5633982" id="Path-3" fill="#D8D8D8"></path>
            <path d="M36.7847522,161.055032 C36.7847522,161.055032 23.5313437,171.462084 9,160.774633 C23.1330942,150.156346 36.3865027,160.563398 36.3865027,160.563398" id="Path-3" fill="#D8D8D8"></path>
            <path d="M102.784752,160.055032 C102.784752,160.055032 89.5313437,170.462084 75,159.774633 C89.1330942,149.156346 102.386503,159.563398 102.386503,159.563398" id="Path-3" fill="#D8D8D8"></path>
            <path d="M98.7847522,103.055032 C98.7847522,103.055032 85.5313437,113.462084 71,102.774633 C85.1330942,92.1563457 98.3865027,102.563398 98.3865027,102.563398" id="Path-3" fill="#D8D8D8"></path>
            <path d="M164.784752,58.0550319 C164.784752,58.0550319 151.531344,68.4620844 137,57.7746326 C151.133094,47.1563457 164.386503,57.5633982 164.386503,57.5633982" id="Path-3" fill="#D8D8D8"></path>
            <path d="M130.784752,23.0550319 C130.784752,23.0550319 117.531344,33.4620844 103,22.7746326 C117.133094,12.1563457 130.386503,22.5633982 130.386503,22.5633982" id="Path-3" fill="#D8D8D8"></path>
            <path d="M188.784752,99.0550319 C188.784752,99.0550319 175.531344,109.462084 161,98.7746326 C175.133094,88.1563457 188.386503,98.5633982 188.386503,98.5633982" id="Path-3" fill="#D8D8D8"></path>
            <path d="M153.784752,137.055032 C153.784752,137.055032 140.531344,147.462084 126,136.774633 C140.133094,126.156346 153.386503,136.563398 153.386503,136.563398" id="Path-3" fill="#D8D8D8"></path>
            <path d="M188.784752,190.055032 C188.784752,190.055032 175.531344,200.462084 161,189.774633 C175.133094,179.156346 188.386503,189.563398 188.386503,189.563398" id="Path-3" fill="#D8D8D8"></path>
            <path d="M130.784752,190.055032 C130.784752,190.055032 117.531344,200.462084 103,189.774633 C117.133094,179.156346 130.386503,189.563398 130.386503,189.563398" id="Path-3" fill="#D8D8D8"></path>
            <path d="M188.784752,23.0550319 C188.784752,23.0550319 175.531344,33.4620844 161,22.7746326 C175.133094,12.1563457 188.386503,22.5633982 188.386503,22.5633982" id="Path-3" fill="#D8D8D8"></path>
            <path d="M102.784752,78.0550319 C102.784752,78.0550319 89.5313437,88.4620844 75,77.7746326 C89.1330942,67.1563457 102.386503,77.5633982 102.386503,77.5633982" id="Path-3" fill="#D8D8D8"></path>
            <path d="M133.784752,121.055032 C133.784752,121.055032 120.531344,131.462084 106,120.774633 C120.133094,110.156346 133.386503,120.563398 133.386503,120.563398" id="Path-3" fill="#D8D8D8"></path>
        </g>
    </g>
</svg>